<?xml version="1.0" encoding="utf-8"?>
<!-- Generator: Adobe Illustrator 28.0.0, SVG Export Plug-In . SVG Version: 6.00 Build 0)  -->
<svg version="1.1" xmlns="http://www.w3.org/2000/svg" xmlns:xlink="http://www.w3.org/1999/xlink" x="0px" y="0px"
	 viewBox="0 0 151.2 151.2" style="enable-background:new 0 0 151.2 151.2;" xml:space="preserve">
<style type="text/css">
	.st0{fill:#FFFFFF;}
	.st1{fill:none;}
	.st2{fill:#9AD7D9;}
	.st3{fill:#C4E7E8;}
</style>
<g id="Logo">
	<g>
		<circle class="st0" cx="75.6" cy="75.6" r="75.6"/>
	</g>
	<g>
		<path class="st1" d="M75.6,3.6v144c39.8,0,72-32.2,72-72S115.4,3.6,75.6,3.6z"/>
		<path class="st2" d="M3.6,75.6c0,39.8,32.2,72,72,72V3.6C35.8,3.6,3.6,35.8,3.6,75.6z"/>
	</g>
	<g>
		<path class="st1" d="M75.6,3.6c-34.4,0-63.2,24.2-70.3,56.5h28.3v30H5.1c6.7,32.8,35.7,57.5,70.5,57.5c39.8,0,72-32.2,72-72
			S115.4,3.6,75.6,3.6z"/>
		<path d="M33.6,60.1H5.3c-1.1,5-1.7,10.2-1.7,15.5c0,5,0.5,9.8,1.5,14.5h28.5V60.1z"/>
	</g>
	<g>
		<path class="st3" d="M75.6,3.6v144c39.8,0,72-32.2,72-72S115.4,3.6,75.6,3.6z"/>
		<path class="st1" d="M3.6,75.6c0,39.8,32.2,72,72,72V3.6C35.8,3.6,3.6,35.8,3.6,75.6z"/>
	</g>
	<g>
		<path class="st1" d="M117.6,60.1h28.3C138.8,27.8,110,3.6,75.6,3.6c-39.8,0-72,32.2-72,72s32.2,72,72,72
			c34.8,0,63.9-24.7,70.5-57.5h-28.5V60.1z"/>
		<path d="M117.6,60.1v30h28.5c1-4.7,1.5-9.5,1.5-14.5c0-5.3-0.6-10.5-1.7-15.5H117.6z"/>
	</g>
	<path d="M69.2,46.6l5.9-1.5c3.6-19.2,18.9-25.2,29-25.2c3,0,7.9,0.4,13.5,2.6c-2.5,3.2-5,7.2-7.3,11.8l-2.9-1.2l1.3-5
		c-1.3-1-4-2.6-7.4-2.6c-10.7,0-13.2,15-13.9,19.7h13.5l-3.4,5.6H86.1c-2.1,11.8-6.7,37.5-11.6,50.9c-6.2,16.7-15.9,30-31.2,30
		c-3.5,0-6.7-0.7-9.7-2c2.1-3,2.8-4.1,4.6-7.4c2.3,1.5,5.1,3.2,8.8,3.2c11.5,0,16.2-19.9,18.3-28.9c2.2-9.2,6.9-36.5,8.5-45.7h-5.5
		L69.2,46.6z"/>
	<g>
		<g>
			<rect x="12.2" y="68.3" class="st0" width="12.8" height="2.7"/>
			<rect x="17.3" y="69.1" class="st0" width="2.7" height="13.8"/>
		</g>
		<g>
			<path class="st0" d="M133.3,75.1h6.3v0.2c0,0.9-0.1,3.9-2,5.8c-1.4,1.4-3.2,1.8-4.9,1.8c-1.7,0-3.5-0.4-5-1.9
				c-0.5-0.5-2-2.2-2-5.4c0-2.7,1.2-4.4,2-5.2c1-1.1,2.8-2.1,5.4-2.1c1,0,2.1,0.2,3.2,0.7c0.9,0.5,1.9,1.3,2.6,2.6l-2.3,1.3
				c-0.5-0.9-1.2-1.4-1.6-1.7c-0.6-0.3-1.3-0.4-1.9-0.4c-1.1,0-2.3,0.4-3.2,1.2c-0.8,0.8-1.4,2.1-1.4,3.7c0,1.9,0.8,3,1.4,3.5
				c0.6,0.6,1.6,1.2,3.1,1.2c0.9,0,1.9-0.3,2.7-0.8c0.5-0.4,1.1-1.1,1.3-2.1h-3.6V75.1z"/>
		</g>
	</g>
</g>
<g id="Border">
</g>
</svg>
