<?xml version="1.0" encoding="UTF-8"?><svg id="a" xmlns="http://www.w3.org/2000/svg" width="63.15" height="56.06" viewBox="0 0 63.15 56.06"><defs><style>.b{fill:#fff;stroke-width:0px;}</style></defs><path class="b" d="m7.21,49.76v-.95h.29c.26,0,.5-.02.72-.05.22-.04.42-.11.59-.23s.3-.28.4-.49c.1-.21.14-.5.14-.85v-11c0-.35-.05-.64-.14-.85s-.23-.38-.4-.49-.37-.19-.59-.23-.47-.06-.72-.06h-.29v-.95h6.58v.95h-.3c-.25,0-.49.02-.72.06-.23.04-.43.11-.59.23-.17.11-.3.28-.4.49-.1.21-.15.5-.15.85v11c0,.35.05.64.15.85.1.21.23.38.4.49.17.11.36.19.59.23.23.04.47.05.72.05h.3v.95h-6.58Z"/><path class="b" d="m20.25,49.98c-.74,0-1.39-.08-1.95-.23-.56-.16-1.03-.37-1.41-.65s-.66-.61-.86-1.01c-.19-.39-.29-.83-.29-1.3s.14-.82.43-1.1c.28-.28.69-.42,1.21-.42.02.47.09.92.22,1.36s.3.82.55,1.15.55.6.93.8c.38.2.83.3,1.36.3,1.02,0,1.81-.25,2.38-.73.57-.49.86-1.2.86-2.12,0-.41-.06-.78-.18-1.09-.12-.32-.31-.61-.59-.88-.27-.27-.63-.53-1.08-.77-.45-.25-1-.51-1.66-.78-.7-.29-1.31-.59-1.83-.92-.52-.33-.96-.69-1.3-1.09-.35-.4-.6-.85-.77-1.34s-.25-1.05-.25-1.67c0-.65.12-1.23.37-1.73.25-.51.59-.94,1.03-1.29s.96-.62,1.57-.8c.6-.18,1.26-.28,1.98-.28s1.28.07,1.8.21.96.33,1.33.56c.36.24.64.51.82.81.19.31.28.62.28.96,0,.49-.16.85-.48,1.1-.32.25-.75.37-1.3.37,0-.35-.04-.7-.13-1.04-.08-.34-.23-.65-.43-.92-.2-.27-.46-.49-.78-.66-.32-.17-.73-.25-1.2-.25-.43,0-.82.06-1.17.18-.34.12-.63.29-.87.52-.24.22-.42.5-.54.81-.13.32-.19.67-.19,1.06,0,.45.06.84.18,1.19s.31.65.59.93c.28.28.64.54,1.09.78.45.25,1,.5,1.66.77.66.27,1.25.56,1.77.86.52.3.96.64,1.32,1.01s.64.79.83,1.25c.19.46.29.98.29,1.56,0,.71-.13,1.35-.39,1.92-.26.56-.64,1.04-1.12,1.43-.49.39-1.07.69-1.76.89s-1.45.3-2.3.3Z"/><path class="b" d="m35.51,33.37c.77,0,1.45.06,2.02.19.57.13,1.05.31,1.43.54.38.23.66.5.85.81.19.31.28.64.28,1.01,0,.24-.05.46-.15.66-.1.2-.24.36-.41.5-.18.14-.38.24-.62.31-.24.07-.5.11-.78.11,0-.35-.05-.7-.14-1.05-.09-.35-.24-.66-.45-.93-.21-.28-.48-.5-.82-.67-.34-.17-.75-.26-1.24-.26-.86,0-1.58.16-2.18.47-.6.31-1.08.77-1.46,1.37-.38.6-.65,1.34-.82,2.22s-.25,1.89-.25,3.02c0,1.01.09,1.93.27,2.77.18.84.46,1.56.84,2.16s.87,1.07,1.46,1.4c.59.33,1.3.5,2.14.5.55,0,1.04-.05,1.46-.16s.8-.25,1.12-.42.61-.38.86-.61c.25-.23.47-.47.66-.72.12.08.23.19.31.33.08.14.12.32.12.55,0,.29-.1.58-.29.88s-.49.57-.89.81c-.4.24-.9.44-1.51.6s-1.34.24-2.18.24c-1.13,0-2.12-.2-2.97-.6-.85-.4-1.57-.96-2.15-1.69-.58-.73-1.01-1.61-1.31-2.63-.29-1.02-.44-2.16-.44-3.4s.15-2.34.46-3.36c.31-1.02.77-1.89,1.38-2.62s1.36-1.3,2.27-1.7c.91-.41,1.96-.61,3.15-.61Z"/><path class="b" d="m45.42,44.35l-.86,2.38c-.07.18-.12.35-.15.53-.04.17-.06.32-.06.45,0,.38.12.66.37.84s.62.26,1.13.26h.52v.95h-5.52v-.95h.43c.22,0,.41-.02.56-.07s.29-.14.42-.27c.12-.13.25-.31.36-.54.11-.23.24-.52.38-.88l5.02-13.43h1.77l5.11,14c.09.24.18.43.27.59.09.15.2.28.33.37.12.09.27.16.43.19.16.04.35.05.58.05h.3v.95h-6.22v-.95h.52c.91,0,1.36-.36,1.36-1.08,0-.13-.02-.25-.05-.39-.03-.13-.08-.28-.14-.45l-.91-2.53h-5.94Zm4.13-5.09c-.24-.67-.45-1.3-.65-1.88-.2-.59-.36-1.15-.48-1.7-.05.27-.11.54-.18.79-.07.25-.15.51-.23.78-.08.27-.17.54-.28.83-.1.29-.22.61-.35.97l-1.54,4.17h5.1l-1.4-3.96Z"/><path class="b" d="m0,21.06c10.76-5.23,21.45-4.68,32.04.69,4.9,2.26,9.86,4.36,15.27,4.61,5.37.44,10.73-.78,15.75-2.76,0,0,.09.18.09.18-5.29,3.42-11.76,5.18-18.06,4.43-4.91-.46-9.47-2.82-13.75-5.01-9.96-5.57-20.67-6.52-31.26-1.95,0,0-.08-.18-.08-.18h0Z"/><path class="b" d="m22.3,8.17c-.99,5.58-8.1,7.58-11.61,2.9-2.29-2.9-1.61-7.47,1.37-9.69,5.08-3.79,11.49.82,10.23,6.79h0Zm-.2-.03c.78-6.74-9.73-8.43-11.14-1.86-1.25,7.33,9.85,9.14,11.14,1.86h0Z"/><path class="b" d="m52.33,17.55c-.99,5.58-8.1,7.58-11.61,2.9-2.29-2.9-1.61-7.47,1.37-9.69,5.08-3.79,11.49.82,10.23,6.79h0Zm-.2-.03c.78-6.74-9.73-8.43-11.14-1.86-1.25,7.33,9.85,9.14,11.14,1.86h0Z"/></svg>