<?xml version="1.0" encoding="utf-8"?>
<!-- Generator: Adobe Illustrator 28.0.0, SVG Export Plug-In . SVG Version: 6.00 Build 0)  -->
<svg version="1.1" id="a" xmlns="http://www.w3.org/2000/svg" xmlns:xlink="http://www.w3.org/1999/xlink" x="0px" y="0px"
	 viewBox="0 0 66.2 66.2" style="enable-background:new 0 0 66.2 66.2;" xml:space="preserve">
<style type="text/css">
	.st0{fill:#FFFFFF;}
	.st1{fill:#006666;stroke:#006666;stroke-miterlimit:10;}
	.st2{fill:#FF6633;stroke:#FF6633;stroke-miterlimit:10;}
</style>
<circle class="st0" cx="33.1" cy="33.1" r="33.1"/>
<path class="st1" d="M12.6,51v-0.8h0.2c0.2,0,0.4,0,0.6,0c0.2,0,0.4-0.1,0.5-0.2c0.1-0.1,0.3-0.2,0.3-0.4c0.1-0.2,0.1-0.4,0.1-0.7
	v-9.3c0-0.3,0-0.5-0.1-0.7c-0.1-0.2-0.2-0.3-0.3-0.4c-0.1-0.1-0.3-0.2-0.5-0.2c-0.2,0-0.4-0.1-0.6-0.1h-0.2v-0.8h5.5v0.8h-0.3
	c-0.2,0-0.4,0-0.6,0.1s-0.4,0.1-0.5,0.2c-0.1,0.1-0.3,0.2-0.3,0.4c-0.1,0.2-0.1,0.4-0.1,0.7v9.3c0,0.3,0,0.5,0.1,0.7
	s0.2,0.3,0.3,0.4c0.1,0.1,0.3,0.2,0.5,0.2s0.4,0,0.6,0h0.3V51H12.6z"/>
<path class="st1" d="M23.6,51.2c-0.6,0-1.2-0.1-1.6-0.2c-0.5-0.1-0.9-0.3-1.2-0.5c-0.3-0.2-0.6-0.5-0.7-0.9
	c-0.2-0.3-0.2-0.7-0.2-1.1c0-0.4,0.1-0.7,0.4-0.9c0.2-0.2,0.6-0.4,1-0.4c0,0.4,0.1,0.8,0.2,1.1c0.1,0.4,0.3,0.7,0.5,1
	s0.5,0.5,0.8,0.7s0.7,0.3,1.1,0.3c0.9,0,1.5-0.2,2-0.6c0.5-0.4,0.7-1,0.7-1.8c0-0.3-0.1-0.7-0.2-0.9c-0.1-0.3-0.3-0.5-0.5-0.7
	c-0.2-0.2-0.5-0.4-0.9-0.6c-0.4-0.2-0.8-0.4-1.4-0.7c-0.6-0.2-1.1-0.5-1.5-0.8c-0.4-0.3-0.8-0.6-1.1-0.9c-0.3-0.3-0.5-0.7-0.6-1.1
	c-0.1-0.4-0.2-0.9-0.2-1.4c0-0.5,0.1-1,0.3-1.5c0.2-0.4,0.5-0.8,0.9-1.1c0.4-0.3,0.8-0.5,1.3-0.7c0.5-0.2,1.1-0.2,1.7-0.2
	s1.1,0.1,1.5,0.2c0.4,0.1,0.8,0.3,1.1,0.5c0.3,0.2,0.5,0.4,0.7,0.7c0.2,0.3,0.2,0.5,0.2,0.8c0,0.4-0.1,0.7-0.4,0.9
	c-0.3,0.2-0.6,0.3-1.1,0.3c0-0.3,0-0.6-0.1-0.9c-0.1-0.3-0.2-0.5-0.4-0.8s-0.4-0.4-0.7-0.6c-0.3-0.1-0.6-0.2-1-0.2
	c-0.4,0-0.7,0.1-1,0.2c-0.3,0.1-0.5,0.2-0.7,0.4c-0.2,0.2-0.4,0.4-0.5,0.7c-0.1,0.3-0.2,0.6-0.2,0.9c0,0.4,0.1,0.7,0.2,1
	c0.1,0.3,0.3,0.5,0.5,0.8s0.5,0.5,0.9,0.7c0.4,0.2,0.8,0.4,1.4,0.6c0.6,0.2,1.1,0.5,1.5,0.7s0.8,0.5,1.1,0.9
	c0.3,0.3,0.5,0.7,0.7,1.1s0.2,0.8,0.2,1.3c0,0.6-0.1,1.1-0.3,1.6c-0.2,0.5-0.5,0.9-0.9,1.2c-0.4,0.3-0.9,0.6-1.5,0.8
	C24.9,51.1,24.3,51.2,23.6,51.2L23.6,51.2z"/>
<path class="st1" d="M36.4,37.2c0.6,0,1.2,0.1,1.7,0.2c0.5,0.1,0.9,0.3,1.2,0.5c0.3,0.2,0.6,0.4,0.7,0.7c0.2,0.3,0.2,0.5,0.2,0.9
	c0,0.2,0,0.4-0.1,0.6s-0.2,0.3-0.3,0.4c-0.2,0.1-0.3,0.2-0.5,0.3c-0.2,0.1-0.4,0.1-0.7,0.1c0-0.3,0-0.6-0.1-0.9
	c-0.1-0.3-0.2-0.6-0.4-0.8c-0.2-0.2-0.4-0.4-0.7-0.6c-0.3-0.1-0.6-0.2-1-0.2c-0.7,0-1.3,0.1-1.8,0.4c-0.5,0.3-0.9,0.6-1.2,1.2
	c-0.3,0.5-0.5,1.1-0.7,1.9c-0.1,0.7-0.2,1.6-0.2,2.5c0,0.9,0.1,1.6,0.2,2.3c0.2,0.7,0.4,1.3,0.7,1.8c0.3,0.5,0.7,0.9,1.2,1.2
	c0.5,0.3,1.1,0.4,1.8,0.4c0.5,0,0.9,0,1.2-0.1c0.4-0.1,0.7-0.2,0.9-0.4s0.5-0.3,0.7-0.5c0.2-0.2,0.4-0.4,0.6-0.6
	c0.1,0.1,0.2,0.2,0.3,0.3c0.1,0.1,0.1,0.3,0.1,0.5c0,0.2-0.1,0.5-0.2,0.7c-0.2,0.3-0.4,0.5-0.8,0.7s-0.8,0.4-1.3,0.5
	s-1.1,0.2-1.8,0.2c-1,0-1.8-0.2-2.5-0.5c-0.7-0.3-1.3-0.8-1.8-1.4s-0.9-1.4-1.1-2.2c-0.2-0.9-0.4-1.8-0.4-2.9c0-1,0.1-2,0.4-2.8
	c0.3-0.9,0.6-1.6,1.2-2.2s1.1-1.1,1.9-1.4C34.5,37.3,35.4,37.2,36.4,37.2L36.4,37.2z"/>
<path class="st1" d="M45.7,46.4l-0.7,2c-0.1,0.2-0.1,0.3-0.1,0.4c0,0.1-0.1,0.3-0.1,0.4c0,0.3,0.1,0.6,0.3,0.7
	c0.2,0.2,0.5,0.2,1,0.2h0.4V51h-4.7v-0.8h0.4c0.2,0,0.3,0,0.5-0.1c0.1,0,0.2-0.1,0.4-0.2c0.1-0.1,0.2-0.3,0.3-0.5
	c0.1-0.2,0.2-0.4,0.3-0.7l4.2-11.3h1.5l4.3,11.8c0.1,0.2,0.2,0.4,0.2,0.5c0.1,0.1,0.2,0.2,0.3,0.3c0.1,0.1,0.2,0.1,0.4,0.2
	c0.1,0,0.3,0,0.5,0h0.3V51H50v-0.8h0.4c0.8,0,1.1-0.3,1.1-0.9c0-0.1,0-0.2,0-0.3c0-0.1-0.1-0.2-0.1-0.4l-0.8-2.1L45.7,46.4
	L45.7,46.4z M49.2,42.1c-0.2-0.6-0.4-1.1-0.5-1.6c-0.2-0.5-0.3-1-0.4-1.4c0,0.2-0.1,0.5-0.2,0.7s-0.1,0.4-0.2,0.7
	c-0.1,0.2-0.1,0.5-0.2,0.7c-0.1,0.2-0.2,0.5-0.3,0.8L46,45.5h4.3L49.2,42.1L49.2,42.1z"/>
<path class="st2" d="M6.5,26.8c9.1-4.4,18.1-3.9,27,0.6c4.1,1.9,8.3,3.7,12.9,3.9c4.5,0.4,9-0.7,13.3-2.3l0.1,0.2
	c-4.5,2.9-9.9,4.4-15.2,3.7c-4.1-0.4-8-2.4-11.6-4.2c-8.4-4.7-17.4-5.5-26.3-1.6L6.5,26.8L6.5,26.8L6.5,26.8z"/>
<path class="st2" d="M25.3,15.9c-0.8,4.7-6.8,6.4-9.8,2.4c-1.9-2.4-1.4-6.3,1.2-8.2C20.9,7,26.3,10.9,25.3,15.9L25.3,15.9L25.3,15.9
	z M25.1,15.9c0.7-5.7-8.2-7.1-9.4-1.6C14.7,20.5,24,22,25.1,15.9L25.1,15.9z"/>
<path class="st2" d="M50.6,23.8c-0.8,4.7-6.8,6.4-9.8,2.4c-1.9-2.4-1.4-6.3,1.2-8.2C46.2,14.9,51.6,18.8,50.6,23.8L50.6,23.8
	L50.6,23.8z M50.4,23.8c0.7-5.7-8.2-7.1-9.4-1.6C40,28.4,49.3,29.9,50.4,23.8L50.4,23.8z"/>
</svg>
