<?xml version="1.0" encoding="utf-8"?>
<!-- Generator: Adobe Illustrator 28.0.0, SVG Export Plug-In . SVG Version: 6.00 Build 0)  -->
<svg version="1.1" id="Layer_1" xmlns="http://www.w3.org/2000/svg" xmlns:xlink="http://www.w3.org/1999/xlink" width="82" height="20" viewBox="0 0 83 20" style="enable-background:new 0 0 83 20;" xml:space="preserve">
<style type="text/css">
    .st0{fill:#555555;}
    .st1{fill:#DF0017;}
    .st2{opacity:0.5;enable-background:new    ;}
    .st3{font-family:'MyriadPro-Regular';}
    .st4{font-size:4.7291px;}
    .st5{fill:#FFFFFF;}
    .st6{font-size:12.7352px;}
</style>
<path class="st0" d="M51.5,20H3c-1.8,0-3-1.2-3-2.4V3c0-1.8,1.2-3,3-3h48.5V20z"/>
<path class="st1" d="M51.5,0H80c1.8,0,3,1.2,3,3V17c0,1.8-1.2,3-3,3H51.5V0z"/>
<text transform="matrix(1 0 0 1 53.9141 12.7383)" class="st2 st3 st4">PROPRIETARY</text>
<text transform="matrix(1 0 0 1 53.9141 12.4336)" class="st5 st3 st4">PROPRIETARY</text>
<text transform="matrix(1.0493 0 0 1 6.2812 15.0352)" class="st2 st3 st6">License</text>
<text transform="matrix(1.0493 0 0 1 6.2812 14.2305)" class="st5 st3 st6">License</text>
</svg>
